<svg xmlns="http://www.w3.org/2000/svg" version="1.1" xmlns:xlink="http://www.w3.org/1999/xlink" xmlns:svgjs="http://svgjs.dev/svgjs" width="128" height="128" viewBox="0 0 128 128"><g transform="matrix(0.44782608695652176,0,0,0.44782608695652176,35.33925170507885,12.5)"><svg viewBox="0 0 125 225" data-background-color="#ffffff" preserveAspectRatio="xMidYMid meet" height="230" width="128" xmlns="http://www.w3.org/2000/svg" xmlns:xlink="http://www.w3.org/1999/xlink"><g id="tight-bounds" transform="matrix(1,0,0,1,0.00013304520481938198,0)"><svg viewBox="0 0 125 225" height="225" width="125"><g><svg></svg></g><g><svg viewBox="0 0 125 225" height="225" width="125"><g><path d="M120.283 112.499l2.569-4.448c4.422-7.659 1.798-17.453-5.861-21.875l-4.448-2.568v-5.137c0-8.843-7.17-16.013-16.013-16.013h-5.137l-2.569-4.448c-4.422-7.659-14.216-10.283-21.875-5.861l-4.45 2.567-4.448-2.569c-7.659-4.421-17.453-1.797-21.875 5.863l-2.568 4.448h-5.137c-8.843 0-16.013 7.17-16.013 16.013v5.137l-4.448 2.568c-7.659 4.422-10.283 14.216-5.861 21.875l2.567 4.448-2.569 4.448c-4.421 7.659-1.797 17.453 5.863 21.876l4.448 2.568v5.137c0 8.843 7.17 16.013 16.013 16.013h5.137l2.568 4.448c4.422 7.659 14.216 10.283 21.875 5.861l4.448-2.567 4.448 2.569c7.659 4.422 17.453 1.798 21.876-5.861l2.568-4.448h5.137c8.843 0 16.013-7.17 16.013-16.013v-5.137l4.448-2.569c7.659-4.422 10.283-14.216 5.861-21.875zM116.29 87.389c3.381 1.952 5.798 5.103 6.808 8.872 1.01 3.769 0.492 7.709-1.459 11.088l-2.164 3.748-6.932-12.008v-13.865zM98.108 148.108l-22.575 13.033h-26.067l-22.575-13.033-13.033-22.575v-26.067l13.033-22.575 22.575-13.033h26.067l22.575 13.033 13.033 22.575v26.067zM111.139 128.335v12.247l-10.606 6.123zM96.705 150.533l-6.123 10.606h-12.247zM73.105 162.541l-10.606 6.124-10.605-6.124zM46.663 161.139h-12.246l-6.123-10.606zM24.465 146.705l-10.605-6.123v-12.247zM12.458 123.105l-6.124-10.606 6.124-10.605zM13.86 96.663v-12.246l10.606-6.123zM28.294 74.466l6.123-10.606h12.246zM51.894 62.458l10.605-6.124 10.606 6.124zM78.335 63.86h12.247l6.123 10.605zM100.533 78.294l10.606 6.123v12.246zM112.541 101.894l6.124 10.605-6.124 10.606zM96.528 63.86c3.903 0 7.572 1.519 10.333 4.28 2.759 2.759 4.28 6.43 4.28 10.332v4.328l-12.008-6.932-6.933-12.008zM67.649 53.362c3.381-1.952 7.318-2.469 11.087-1.459 3.769 1.01 6.92 3.429 8.872 6.808l2.163 3.748h-13.864l-12.008-6.932zM37.389 58.709c1.952-3.381 5.103-5.798 8.872-6.808 3.769-1.01 7.709-0.492 11.088 1.459l3.748 2.164-12.008 6.932h-13.865zM13.86 78.471c0-3.903 1.519-7.572 4.28-10.333 2.759-2.759 6.43-4.28 10.332-4.28h4.328l-6.932 12.008-12.008 6.933zM3.362 107.35c-1.952-3.381-2.469-7.318-1.459-11.087 1.01-3.769 3.429-6.92 6.808-8.872l3.748-2.164v13.865l-6.932 12.008zM8.709 137.61c-3.381-1.952-5.798-5.103-6.808-8.872-1.01-3.769-0.492-7.709 1.459-11.088l2.164-3.748 6.932 12.008v13.864zM28.471 161.139c-3.903 0-7.572-1.519-10.333-4.28-2.759-2.759-4.28-6.43-4.28-10.332v-4.328l12.008 6.932 6.933 12.008zM57.35 171.637c-3.381 1.952-7.318 2.469-11.087 1.459-3.769-1.01-6.92-3.429-8.872-6.808l-2.164-3.748h13.865l12.008 6.932zM87.61 166.29c-1.952 3.381-5.103 5.798-8.872 6.808-3.769 1.01-7.709 0.492-11.088-1.459l-3.748-2.164 12.008-6.932h13.864zM111.139 146.528c0 3.903-1.519 7.572-4.28 10.333-2.759 2.759-6.43 4.28-10.332 4.28h-4.328l6.932-12.008 12.008-6.933zM123.098 128.736c-1.01 3.769-3.429 6.92-6.808 8.872l-3.749 2.163v-13.864l6.933-12.008 2.163 3.748c1.952 3.382 2.471 7.32 1.461 11.089z" fill="#ffffff" fill-rule="nonzero" stroke="none" stroke-width="1" stroke-linecap="butt" stroke-linejoin="miter" stroke-miterlimit="10" stroke-dasharray="" stroke-dashoffset="0" font-family="none" font-weight="none" font-size="none" text-anchor="none" style="mix-blend-mode: normal" data-fill-palette-color="tertiary"></path></g><g transform="matrix(1,0,0,1,39.325,87.0910310142498)"><svg viewBox="0 0 46.35 50.81793797150042" height="50.81793797150042" width="46.35"><g><svg viewBox="0 0 46.35 50.81793797150042" height="50.81793797150042" width="46.35"><g><svg viewBox="0 0 46.35 50.81793797150042" height="50.81793797150042" width="46.35"><g><svg viewBox="0 0 46.35 50.81793797150042" height="50.81793797150042" width="46.35"><g><svg viewBox="0 0 46.35 50.81793797150042" height="50.81793797150042" width="46.35"><g transform="matrix(1,0,0,1,0,0)"><svg width="46.35" viewBox="0.17 -31.49 29.13 31.93" height="50.81793797150042" data-palette-color="#010c80"><path d="M20.19-19.02L21.88-19.02 21.88-1.86Q20.75-0.88 18.87-0.22 16.99 0.44 14.31 0.44 11.62 0.44 9.74-0.76L9.74-0.76Q7.62-2.05 7.62-4.42L7.62-4.42 7.62-20.14 1.93-20.14Q0.17-22.66 0.17-25.63L0.17-25.63Q0.17-27.66 0.82-29.16 1.46-30.66 2.42-31.49L2.42-31.49 27.66-31.49Q28.37-30.4 28.83-28.83 29.3-27.27 29.3-25.73L29.3-25.73Q29.3-22.85 28.03-21.5 26.76-20.14 24.61-20.14L24.61-20.14 17.46-20.14Q17.38-19.97 17.38-19.78L17.38-19.78Q17.38-19.34 17.9-19.19L17.9-19.19Q18.43-19.02 20.19-19.02L20.19-19.02Z" opacity="1" transform="matrix(1,0,0,1,0,0)" fill="#ffffff" class="undefined-text-0" data-fill-palette-color="primary" id="text-0"></path></svg></g></svg></g></svg></g></svg></g></svg></g></svg></g></svg></g><defs></defs></svg><rect fill="none" stroke="none" visibility="hidden"></rect></g></svg></g></svg>